<svg id="Layer_1" data-name="Layer 1" xmlns="http://www.w3.org/2000/svg" viewBox="0 0 383.58 294.29"><defs><style>.cls-1{fill:#fdc20f;}.cls-2,.cls-3,.cls-4,.cls-6{fill:#010101;}.cls-3{fill-rule:evenodd;isolation:isolate;opacity:0.8;}.cls-4{font-size:22px;font-family:AmericanTypewriter, American Typewriter;}.cls-5{font-family:MyriadPro-Regular, Myriad Pro;}.cls-6{font-size:18px;stroke:#010101;stroke-miterlimit:10;stroke-width:0.1px;font-family:ArialUnicodeMS-Bold, Arial Unicode MS;font-weight:700;}</style></defs><path class="cls-1" d="M391.29,364.12a3.06,3.06,0,0,1-3.05,3.06H367.16a2.18,2.18,0,0,1,0-4.35h.12a2.28,2.28,0,0,0,2.28-2.29V297.31a2.29,2.29,0,0,0-2.28-2.29h-.12a2.17,2.17,0,0,1,0-4.34h24.16a3.06,3.06,0,0,1,3.06,3.05v5a3.06,3.06,0,0,1-2,2.86l-.18.07a6,6,0,0,0-2.51,1.37,3.36,3.36,0,0,0-.46,2.06V325a1.18,1.18,0,0,0,2.31.33q3.68-12.13,8.1-17,4.58-5,12.23-5a91.86,91.86,0,0,1,13,1.31,2.92,2.92,0,0,1,2.39,3.29l-1.57,12.37a3.06,3.06,0,0,1-3.19,2.66l-11.79-.6a3,3,0,0,0-3.21,3v2.84a3.16,3.16,0,0,0,.57,2.06,3.66,3.66,0,0,0,2.86.92h5.31a3,3,0,0,1,3,2.79l3,35.43a3,3,0,0,0,2,2.59l1.37.52a2.8,2.8,0,0,1,1.8,2.85l-.06.62a2.41,2.41,0,0,1-3.67,1.85,60.21,60.21,0,0,0-18.63-7.59l-3.08-.68a3,3,0,0,1-2.39-3v-27a3.06,3.06,0,0,0-3.06-3.06h-2.24a3.06,3.06,0,0,0-3,3.06Z" transform="translate(-103.25 -235.29)"/><path class="cls-1" d="M229.83,294.45a2.17,2.17,0,0,1-2.17,2.17h-.92a2.3,2.3,0,0,0-2.2,1.64l-15.86,74.18a2,2,0,0,0-.1.64L207.53,381c0,1.26.69,3.66,5.26,4.23l8,1A2.53,2.53,0,0,1,223,389c0,1.48,0,3.08-5,3.08l-11.39-.54A152.76,152.76,0,0,1,164,383.34l-3.16-1.09a2.19,2.19,0,0,1-.51-.25,5,5,0,0,1-1.93-4,2.18,2.18,0,0,1,1.91-2.16,1.89,1.89,0,0,1,.53,0l9.31,1.63a4.36,4.36,0,0,0,.52,0c1.88.06,9.46.62,9.46-.58l.66-5.76a2.3,2.3,0,0,0-.09-.64l-20.9-72.35a2.29,2.29,0,0,0-2.19-1.64h-1a2.17,2.17,0,1,1,0-4.34H183A2.28,2.28,0,0,1,185.2,294l8.53,34.82a2.27,2.27,0,0,0,2.22,1.74h2.43a2.28,2.28,0,0,0,2.29-2.28V294.57a2.28,2.28,0,0,1,2.29-2.29h24.7A2.17,2.17,0,0,1,229.83,294.45Z" transform="translate(-103.25 -235.29)"/><path class="cls-1" d="M223,399.13a3.06,3.06,0,0,1,2.87,3.05v17.9a3.06,3.06,0,0,1-3,3.05h-9a3.05,3.05,0,0,1-3-2.51l-2.21-12.18a3.07,3.07,0,0,0-3-2.51h-3.83a3.06,3.06,0,0,0-3,3.45L201,426.87v41.68A3.06,3.06,0,0,0,204,471.6h13.71a2.37,2.37,0,1,1,0,4.74h-61a2.37,2.37,0,0,1,0-4.74H171.1a3.06,3.06,0,0,0,3.06-3.05V426.87l2.29-17.49a3.06,3.06,0,0,0-3-3.45h-1.06a3,3,0,0,0-3,2.53l-2.24,12.89a3,3,0,0,1-3,2.53h-9a3.06,3.06,0,0,1-3.06-3.06V392.31a3.06,3.06,0,0,1,3.77-3L175.2,394a152.56,152.56,0,0,0,26.13,3.87Z" transform="translate(-103.25 -235.29)"/><path class="cls-1" d="M313.3,474a2.37,2.37,0,0,1-2.37,2.37H279.4a3.06,3.06,0,0,1-3-3.06V421.57a3.06,3.06,0,0,0-3.06-3.05H261.06a3.06,3.06,0,0,0-3.05,3.05v51.71a3.06,3.06,0,0,1-3.06,3.06H225.43a2.37,2.37,0,0,1,0-4.74h5.89a3.06,3.06,0,0,0,3.06-3l1.52-62.05a2.46,2.46,0,0,0-2.46-2.53h-.1a2.37,2.37,0,0,1-2.37-2.37v-.14a2.22,2.22,0,0,1,2.23-2.22,111,111,0,0,0,26.05-3.1l12-2.88a3,3,0,0,1,3.77,3v.58a3.06,3.06,0,0,1-2.38,3l-18.39,4.21a6.63,6.63,0,0,0-2.75,1.5,3.71,3.71,0,0,0-.5,2.24V418a.54.54,0,0,0,1.05.19q2.61-6.69,7.73-8.75c3.57-1.49,10.09-2.68,17.52-2.68,8,.57,12.38,1.85,16.54,4.68s6.23,7.56,6.23,14.45v42.68a3.06,3.06,0,0,0,3.06,3.05h7.82A2.37,2.37,0,0,1,313.3,474Z" transform="translate(-103.25 -235.29)"/><path class="cls-1" d="M427.65,474a2.37,2.37,0,0,1-2.37,2.37H387.71a2.37,2.37,0,0,1,0-4.74h4.14a3,3,0,0,0,3-3.05V410.47a3.06,3.06,0,0,0-2.64-3l-3.49-.47a3.07,3.07,0,0,1-2.62-2.59l-.1-.75a3,3,0,0,1,4-3.33l3.21,1.07A71.18,71.18,0,0,0,415.76,405a2.86,2.86,0,0,1,2.85,2.85v60.68a3.06,3.06,0,0,0,3.05,3.05h3.62A2.37,2.37,0,0,1,427.65,474Z" transform="translate(-103.25 -235.29)"/><path class="cls-1" d="M314.68,431.54a3,3,0,0,1-3.41-2.56l-2.12-13.78a3.07,3.07,0,0,1,2.23-3.43c9-2.46,20-5.76,30.48-7.32,10.32-1.52,20.14-1.8,25,1.44a20.72,20.72,0,0,1,5.83,6.4c.08.13.15.25.24.37,7.81,10.67,3.51,45.16,2.29,55.91a2.71,2.71,0,0,0,2.77,3h3.31a2.37,2.37,0,0,1,0,4.74H366.38a3.06,3.06,0,0,1-2.7-1.63l-3.79-7.18a1.22,1.22,0,0,0-1.09-.66,1.25,1.25,0,0,0-1.17.82q-2.42,6.53-5.82,8.52-3.62,2-10.1,2c-4.25,0-7.12,0-8.61-.13s-5-.79-7.6-1.12a16,16,0,0,1-6-1.74A31.52,31.52,0,0,1,315,471.6q-4.36-4.11-4.37-14.45,0-13,8.11-17.2a27.25,27.25,0,0,1,8.11-2.62c2.83-.49,7.72-.24,11.72-.24H351.1a.2.2,0,0,0,.15-.06,12.35,12.35,0,0,0,4.37-13.17l-2.77-9.81a.54.54,0,0,0-.58-.4L339.58,415a3.07,3.07,0,0,0-2.65,2.32l-2.36,9.7a3.06,3.06,0,0,1-2.58,2.31Zm33.45,35.33a3.06,3.06,0,0,0,3.06-3.06V449.49a3.06,3.06,0,0,0-3.06-3.06h-11a3.05,3.05,0,0,0-3,3.06v14.32a3.05,3.05,0,0,0,3,3.06Z" transform="translate(-103.25 -235.29)"/><path class="cls-1" d="M238.28,315.83a3,3,0,0,1-3-2.58l-2-12.69a3,3,0,0,1,2.24-3.41,167.56,167.56,0,0,1,20.71-4.07c8.89-.52,13.69-1.4,18.17,1.6,2.46,1.64,7.57,6.12,8.48,8.81.08.22.15.45.25.66,7.25,15.58,5,33.29,5,36.27l-2.54,28.92a3,3,0,0,0,3.34,3.3l8.42-.84a3.06,3.06,0,0,1,3.35,3V375a3.05,3.05,0,0,1-2.12,2.91l-20,6.38a3.05,3.05,0,0,1-3.62-1.47l-2-3.75a.93.93,0,0,0-.83-.5,1,1,0,0,0-1,1c-.2,3.58-1.51,5.48-3.58,6.69a32.81,32.81,0,0,1-9.72,3.43,82.17,82.17,0,0,1-12.57,2.28c-4.56.46-12,.46-17.16-5.14s-6.86-10.77-6.86-17.15c0-8,4.58-12.58,11.44-15.44,2.47-1.23,8.43-2.1,11-2.48a55,55,0,0,1,9.51-.7h10.63a1.41,1.41,0,0,0,1.37-1l.12-.47a69.32,69.32,0,0,0-3.86-46.78,1.38,1.38,0,0,0-1.46-.8l-5.81.86a3.06,3.06,0,0,0-2.52,2.3l-2.08,8.48a3,3,0,0,1-3,2.32Zm23.56,62.69a3.05,3.05,0,0,0,3.06-3v-12.8a3.06,3.06,0,0,0-3.06-3.06h-9.78a3.06,3.06,0,0,0-3.06,3.06v12.8a3.05,3.05,0,0,0,3.06,3Z" transform="translate(-103.25 -235.29)"/><path class="cls-1" d="M306.37,314.86a3.05,3.05,0,0,1-3-2.58l-2-12.69a3,3,0,0,1,2.25-3.41,165.52,165.52,0,0,1,20.7-4.07c8.9-.53,16.39-.64,20.88,2.36a13.58,13.58,0,0,1,4.64,5.08c6.82,14.92,1.83,46.1.37,56.15a2.6,2.6,0,0,0,2.68,3h6.35a3.05,3.05,0,0,1,3.05,3.06v2a3,3,0,0,1-2.8,3L345.76,368a3,3,0,0,1-3.28-2.63l-.69-5.08a.94.94,0,0,0-.94-.82,1,1,0,0,0-.9.64c-1.38,3.86-2.32,5.31-4.88,7.4a3,3,0,0,1-.44.29,19.32,19.32,0,0,1-7.77,2.73c-4,.57-9.72,1.72-14.87,1.72-4.57,0-10.69-1.72-14.29-5.63s-3.84-8.67-3.84-16.1c0-8,6.25-12.88,11.28-15.5a25.51,25.51,0,0,1,7.54-2.42,56.16,56.16,0,0,1,9.51-.69l12,.65a.94.94,0,0,0,.94-.64l.53-1.64a41.75,41.75,0,0,0-.53-27.56.84.84,0,0,0-.87-.54l-11.58,1.21a3,3,0,0,0-2.59,2.12l-2.29,7.22a3,3,0,0,1-2.91,2.13Zm23.56,44.61a3.06,3.06,0,0,0,3.05-3.06v-12.8a3,3,0,0,0-3.05-3.05h-9.79a3,3,0,0,0-3.05,3.05v12.8a3.06,3.06,0,0,0,3.05,3.06Z" transform="translate(-103.25 -235.29)"/><path class="cls-1" d="M421,392.62c.74-4.51.9-7-.81-9.32s-5.69-5.73-12.58-6.86-11.53-1.3-13.91-.52c-4.67,1.55-4.69,6.82-5.43,11.33s-.16,7.5,1.74,9,6.45,2.83,13.34,4,11.37,1.28,13.44.44S420.29,397.13,421,392.62Z" transform="translate(-103.25 -235.29)"/><path class="cls-1" d="M328.45,376.57l-3.59.89a3,3,0,0,0-1.69,4.66,10.37,10.37,0,0,1,1.63,8.26,47.2,47.2,0,0,0-.9,11.23,2.44,2.44,0,0,0,3.07,2.24c1-.24,2.19-.55,3.32-.92a3.58,3.58,0,0,0,2.08-4.19,41.79,41.79,0,0,1,0-12.14,19.89,19.89,0,0,0-.79-8.49A2.52,2.52,0,0,0,328.45,376.57Z" transform="translate(-103.25 -235.29)"/><path class="cls-1" d="M341.68,374.56l-3.42.44a3,3,0,0,0-2.13,4.45,10.27,10.27,0,0,1,.77,8.16A46.4,46.4,0,0,0,335,398.4a2.49,2.49,0,0,0,2.83,2.59c1-.11,2.09-.28,3.17-.5,1.71-.33,2.62-2.17,2.47-3.92a41.45,41.45,0,0,1,1.12-11.79,19.45,19.45,0,0,0,0-8.32A2.56,2.56,0,0,0,341.68,374.56Z" transform="translate(-103.25 -235.29)"/><path class="cls-1" d="M356.17,374l-3.45-.07c-2.13-.05-3.37,2.05-2.65,4.13a10.32,10.32,0,0,1-.24,8.17,46.09,46.09,0,0,0-3.21,10.42,2.58,2.58,0,0,0,2.46,3c1,0,2.11,0,3.22,0,1.73-.08,2.86-1.79,2.93-3.56a41.1,41.1,0,0,1,2.54-11.49,19.57,19.57,0,0,0,1-8.26A2.63,2.63,0,0,0,356.17,374Z" transform="translate(-103.25 -235.29)"/><path class="cls-2" d="M447.84,409.6l-.28-.7,5.71-9.36h-1.46l-1.63,2.76h-1.52l-.31-3.4a15.87,15.87,0,0,1,3.91-.55c1.92,0,3.12.36,3.61,1.08a2.3,2.3,0,0,1,.31,1.29,4.26,4.26,0,0,1-.44,1.76,21.42,21.42,0,0,1-1.43,2.45l-2.25,3.46h1.28l1.71-2.6h1.11l.33,3.81Z" transform="translate(-103.25 -235.29)"/><path class="cls-2" d="M467.25,403v2.3a6.27,6.27,0,0,1-.58,2.87,3.13,3.13,0,0,1-1.46,1.29,4.81,4.81,0,0,1-1.91.32c-.23,0-.55,0-1,0s-.7,0-.91,0a6,6,0,0,1-.88-.09,3,3,0,0,1-.86-.23,4.51,4.51,0,0,1-.71-.5,2.13,2.13,0,0,1-.61-.79,7,7,0,0,1-.53-2.87V403a6.63,6.63,0,0,1,.57-2.88,3,3,0,0,1,1.48-1.28,5,5,0,0,1,1.9-.33h1.89a4.8,4.8,0,0,1,.86.1,2.48,2.48,0,0,1,.88.23,5,5,0,0,1,.71.5,2.21,2.21,0,0,1,.62.78A7.24,7.24,0,0,1,467.25,403Zm-6.49,5.69h2.73l.93-9h-2.73Z" transform="translate(-103.25 -235.29)"/><path class="cls-2" d="M468.71,409.6l-.28-.7,5.71-9.36h-1.46l-1.63,2.76h-1.52l-.31-3.4a15.81,15.81,0,0,1,3.91-.55c1.92,0,3.12.36,3.61,1.08a2.3,2.3,0,0,1,.31,1.29,4.26,4.26,0,0,1-.44,1.76,21.42,21.42,0,0,1-1.43,2.45l-2.25,3.46h1.28l1.71-2.6H477l.33,3.81Z" transform="translate(-103.25 -235.29)"/><path class="cls-2" d="M486.22,409.6h-7.74v-.7h1.9v-5.8l2.11-.55V402h-3.42l-.42-2.43,4.86-1.17h.81V408.9h1.9Z" transform="translate(-103.25 -235.29)"/><path class="cls-2" d="M446.92,367l.4-2.68h1.91l.46,1.9h1.65v-1.11L448.41,363a3,3,0,0,1-1-1.13,3.25,3.25,0,0,1-.31-1.43,4.53,4.53,0,0,1,.13-1.2,1.71,1.71,0,0,1,.44-.7,2.45,2.45,0,0,1,.61-.46,2.58,2.58,0,0,1,.8-.27,12.77,12.77,0,0,1,2.21-.15,11.3,11.3,0,0,1,3.14.51l-.4,2.67h-1.73l-.4-1.9h-1.48V360l2.92,2.17a2.9,2.9,0,0,1,1,1.13,3.35,3.35,0,0,1,.31,1.48,3.26,3.26,0,0,1-.22,1.33,2.06,2.06,0,0,1-.57.74,2.28,2.28,0,0,1-.87.42,10.8,10.8,0,0,1-2.53.23A14,14,0,0,1,446.92,367Z" transform="translate(-103.25 -235.29)"/><path class="cls-2" d="M459.63,367.29h-4v-.56h.6v-7.05h-.6v-.57H459v7.62h.6Zm-.73-11.16q.27.21.27,1c0,.55-.09.89-.27,1a2.36,2.36,0,0,1-1.25.21,2.62,2.62,0,0,1-1.29-.21c-.2-.14-.3-.48-.3-1s.1-.88.3-1a2.62,2.62,0,0,1,1.29-.21A2.36,2.36,0,0,1,458.9,356.13Z" transform="translate(-103.25 -235.29)"/><path class="cls-2" d="M469.92,367.29H466.5v-7.05h-2.18v7.05H460.9v-.56h.59v-7.05h-.59v-.57h2l.52,1.13h.19a1.76,1.76,0,0,1,.93-1.08,5.44,5.44,0,0,1,2-.27,3.63,3.63,0,0,1,2.08.51,1.89,1.89,0,0,1,.75,1.72v5.61h.59Z" transform="translate(-103.25 -235.29)"/><path class="cls-2" d="M475.41,367.51a9.78,9.78,0,0,1-1.93-.1l-.65-.22a1.44,1.44,0,0,1-.49-.32,5.49,5.49,0,0,1-.38-.46,2,2,0,0,1-.31-.65,8,8,0,0,1-.24-2v-1.16a7,7,0,0,1,.17-1.69A3,3,0,0,1,472,360a5.49,5.49,0,0,1,.38-.46,1.28,1.28,0,0,1,.49-.3,4.46,4.46,0,0,1,.53-.19,2.47,2.47,0,0,1,.61-.1c.41,0,.84-.05,1.31-.05a10.61,10.61,0,0,1,3,.45l-.36,2.32h-1.7l-.41-1.8h-1.54v6.69h1.54l.41-1.8h1.7l.36,2.32A8.43,8.43,0,0,1,475.41,367.51Z" transform="translate(-103.25 -235.29)"/><path class="cls-2" d="M482.48,360v2.67h2V360Zm0,6.39h1.86l.39-1.65h1.59l.34,2.32a13.89,13.89,0,0,1-3.34.44,10.24,10.24,0,0,1-1,0,5,5,0,0,1-1-.19,2.28,2.28,0,0,1-.86-.48,2.58,2.58,0,0,1-.57-.88,3.75,3.75,0,0,1-.22-1.37v-1.93a4.47,4.47,0,0,1,.59-2.63,4,4,0,0,1,.39-.46,1.52,1.52,0,0,1,.52-.3,4.58,4.58,0,0,1,.55-.19,2.77,2.77,0,0,1,.64-.1c.42,0,.82-.05,1.22-.05l.83,0a5.84,5.84,0,0,1,.64,0,2.29,2.29,0,0,1,.59.13,3.08,3.08,0,0,1,.48.27,1,1,0,0,1,.4.43,2.67,2.67,0,0,1,.22.66,3.41,3.41,0,0,1,.11.9,3.71,3.71,0,0,1-.11.93,2.55,2.55,0,0,1-.22.63,1,1,0,0,1-.4.44,4,4,0,0,1-.48.26,1.88,1.88,0,0,1-.59.14,12.58,12.58,0,0,1-1.35.06h-1.21Z" transform="translate(-103.25 -235.29)"/><path class="cls-3" d="M455.7,381h20.59v2.29H455.7Z" transform="translate(-103.25 -235.29)"/><text class="cls-4" transform="translate(96.28 285.49)">B<tspan class="cls-5" x="15.22" y="0">ế</tspan><tspan x="26.25" y="0">p Thái nhà b</tspan><tspan class="cls-5" x="156.04" y="0">ạ</tspan><tspan x="166.65" y="0">n</tspan></text><text x="-103.25" y="-235.29"/><text class="cls-6" transform="translate(53.12 91.22) rotate(-163.03) scale(1.02 1)">ค</text><text class="cls-6" transform="matrix(-0.83, -0.59, 0.58, -0.81, 40.97, 87.22)">ร</text><text class="cls-6" transform="translate(32.73 80.82) rotate(-135.44) scale(1.02 1)">ั</text><text class="cls-6" transform="matrix(-0.6, -0.83, 0.81, -0.59, 31.91, 80.48)">ว</text><text class="cls-6" transform="translate(25.93 72.22) rotate(-108.94) scale(1.02 1)">ไ</text><text class="cls-6" transform="matrix(0.02, -1.02, 1, 0.02, 22.34, 62.45)">ท</text><text class="cls-6" transform="matrix(0.39, -0.94, 0.92, 0.39, 22.83, 48.99)">ย</text><text class="cls-6" transform="matrix(0.69, -0.75, 0.74, 0.68, 27.53, 37.98)">ส</text><text class="cls-6" transform="matrix(0.82, -0.61, 0.6, 0.8, 36.09, 29.53)">ู</text><text class="cls-6" transform="matrix(0.84, -0.58, 0.57, 0.82, 37.04, 28.85)">่</text><text class="cls-6" transform="matrix(0.93, -0.42, 0.41, 0.91, 37.38, 28.02)">บ</text><text class="cls-6" transform="translate(48.98 23.5) rotate(-13.39) scale(1.02 1)">้</text><text class="cls-6" transform="translate(49.71 22.99) rotate(-4.22) scale(1.02 1)">า</text><text class="cls-6" transform="translate(59.76 22.07) rotate(14.14) scale(1.02 1)">น</text><text class="cls-6" transform="matrix(0.84, 0.58, -0.57, 0.82, 72.4, 25.32)">ค</text><text class="cls-6" transform="matrix(0.71, 0.74, -0.72, 0.69, 82.76, 33.36)">ุ</text><text class="cls-6" transform="matrix(0.49, 0.9, -0.88, 0.48, 83.99, 33.06)">ณ</text><text x="-103.25" y="-235.29"/></svg>